<svg width="132" height="33" viewBox="0 0 132 33" fill="none" xmlns="http://www.w3.org/2000/svg">
<path d="M20.3938 15.8867C20.3938 12.2951 23.415 10.6275 23.5464 10.4993C21.8388 8.0621 19.2116 7.80555 18.2921 7.67728C16.0591 7.42074 13.9574 8.96 12.7752 8.96C11.593 8.96 9.88536 7.67728 8.04638 7.67728C5.68197 7.67728 3.44892 9.08827 2.13536 11.1406C-0.3604 15.3736 1.47858 21.7872 3.97434 25.2506C5.15655 26.9181 6.60146 28.8422 8.44045 28.8422C10.2794 28.7139 10.9362 27.6877 13.1693 27.6877C15.4023 27.6877 15.9277 28.8422 17.8981 28.8422C19.8684 28.8422 21.0506 27.1747 22.2328 25.3788C23.6777 23.4548 24.2032 21.5307 24.2032 21.4024C24.2032 21.5307 20.3938 20.1197 20.3938 15.8867Z" fill="white"/>
<path d="M16.8474 5.49478C17.7669 4.34033 18.555 2.67279 18.2923 1.00525C16.8474 1.00525 15.1398 1.90315 14.0889 3.18588C13.1694 4.21205 12.3813 5.87959 12.644 7.54713C14.0889 7.67541 15.7965 6.7775 16.8474 5.49478Z" fill="white"/>
<path d="M43.3815 24.7359H37.2078L35.7629 29.0971H33.1357L38.9154 13.0631H41.6739L47.5849 28.9689H44.9578L43.3815 24.7359ZM37.8646 22.6835H42.8561L40.4917 15.7568H40.229L37.8646 22.6835Z" fill="white"/>
<path d="M60.3264 23.1979C60.3264 26.7895 58.356 29.0984 55.3349 29.0984C53.6272 29.0984 52.3137 28.3288 51.6569 27.0461V32.8183H49.1611V17.4256H51.5255V19.3497C52.1823 18.067 53.6272 17.2974 55.3349 17.2974C58.356 17.2974 60.3264 19.6063 60.3264 23.1979ZM57.8306 23.1979C57.8306 20.889 56.6484 19.3497 54.6781 19.3497C52.8391 19.3497 51.5255 20.889 51.5255 23.1979C51.5255 25.5068 52.8391 27.0461 54.6781 27.0461C56.5171 27.0461 57.8306 25.5068 57.8306 23.1979Z" fill="white"/>
<path d="M73.4621 23.1979C73.4621 26.7895 71.4918 29.0984 68.4706 29.0984C66.763 29.0984 65.4494 28.3288 64.7926 27.0461V32.8183H62.2969V17.4256H64.6613V19.3497C65.3181 18.067 66.763 17.2974 68.4706 17.2974C71.3604 17.2974 73.4621 19.6063 73.4621 23.1979ZM70.835 23.1979C70.835 20.889 69.6528 19.3497 67.6825 19.3497C65.8435 19.3497 64.5299 20.889 64.5299 23.1979C64.5299 25.5068 65.8435 27.0461 67.6825 27.0461C69.6528 27.0461 70.835 25.5068 70.835 23.1979Z" fill="white"/>
<path d="M82.0001 24.6081C82.1315 26.1473 83.7078 27.1735 85.9408 27.1735C88.0425 27.1735 89.4874 26.1473 89.4874 24.7363C89.4874 23.4536 88.5679 22.8123 86.4662 22.2992L84.3645 21.7861C81.3434 21.0165 80.0298 19.7337 80.0298 17.5531C80.0298 14.8594 82.5256 12.9353 85.9408 12.9353C89.3561 12.9353 91.7205 14.8594 91.8518 17.5531H89.3561C89.2247 16.0138 87.9112 14.9877 85.9408 14.9877C83.9705 14.9877 82.6569 16.0138 82.6569 17.4248C82.6569 18.5793 83.5764 19.2206 85.6781 19.7337L87.5171 20.1185C90.801 20.8882 92.2459 22.1709 92.2459 24.4798C92.2459 27.4301 89.7501 29.3541 85.9408 29.3541C82.2629 29.3541 79.8984 27.5583 79.7671 24.6081H82.0001Z" fill="white"/>
<path d="M97.3684 14.6042V17.298H99.6015V19.222H97.3684V25.6357C97.3684 26.6618 97.7625 27.0467 98.8133 27.0467C99.076 27.0467 99.4701 27.0467 99.6015 27.0467V28.9707C99.3388 29.099 98.8133 29.099 98.2879 29.099C95.9235 29.099 95.004 28.2011 95.004 26.0205V19.222H93.2964V17.298H95.004V14.6042H97.3684Z" fill="white"/>
<path d="M100.916 23.1979C100.916 19.6063 103.149 17.2974 106.564 17.2974C109.979 17.2974 112.212 19.6063 112.212 23.1979C112.212 26.9178 109.979 29.0984 106.564 29.0984C103.149 29.0984 100.916 26.9178 100.916 23.1979ZM109.716 23.1979C109.716 20.6324 108.534 19.2214 106.564 19.2214C104.593 19.2214 103.411 20.7607 103.411 23.1979C103.411 25.7633 104.593 27.1743 106.564 27.1743C108.534 27.1743 109.716 25.7633 109.716 23.1979Z" fill="white"/>
<path d="M114.183 17.4256H116.547V19.3497C116.941 18.067 117.992 17.2974 119.437 17.2974C119.831 17.2974 120.094 17.2974 120.225 17.4256V19.6063C120.094 19.478 119.568 19.478 119.174 19.478C117.598 19.478 116.678 20.5042 116.678 22.1717V29.0984H114.183V17.4256Z" fill="white"/>
<path d="M131.521 25.6351C131.258 27.6874 129.025 29.2267 126.398 29.2267C122.983 29.2267 120.75 26.9178 120.75 23.3262C120.75 19.7345 122.852 17.2974 126.267 17.2974C129.551 17.2974 131.653 19.478 131.653 23.0696V23.8392H123.246V23.9675C123.246 25.8916 124.559 27.3026 126.398 27.3026C127.712 27.3026 128.763 26.6612 129.157 25.6351H131.521ZM123.246 22.1717H129.157C129.157 20.3759 127.975 19.2214 126.267 19.2214C124.691 19.2214 123.377 20.3759 123.246 22.1717Z" fill="white"/>
<path d="M37.6013 1.13318C39.9657 1.13318 41.2792 2.54417 41.2792 4.98135C41.2792 7.41852 39.9657 8.82951 37.6013 8.82951H34.7114V1.13318H37.6013ZM35.8936 7.67506H37.3385C38.9148 7.67506 39.9657 6.64888 39.9657 4.98135C39.9657 3.31381 39.0462 2.28763 37.3385 2.28763H35.8936V7.67506Z" fill="white"/>
<path d="M42.5928 5.87812C42.5928 3.95403 43.6436 2.92786 45.3513 2.92786C47.0589 2.92786 48.1097 4.08231 48.1097 5.87812C48.1097 7.8022 47.0589 8.82838 45.3513 8.82838C43.6436 8.82838 42.5928 7.67393 42.5928 5.87812ZM46.9275 5.87812C46.9275 4.5954 46.4021 3.95403 45.3513 3.95403C44.3004 3.95403 43.775 4.72367 43.775 5.87812C43.775 7.16084 44.3004 7.93047 45.3513 7.93047C46.4021 7.8022 46.9275 7.03257 46.9275 5.87812Z" fill="white"/>
<path d="M55.5971 8.70011H54.4149L53.2327 4.46712H53.1013L51.9191 8.70011H50.7369L49.1606 2.92786H50.3428L51.3937 7.28911H51.5251L52.7073 2.92786H53.8895L55.0717 7.28911H55.203L55.9912 2.92786H57.1734L55.5971 8.70011Z" fill="white"/>
<path d="M58.6187 2.92832H59.8009V3.82623H59.9322C60.1949 3.18487 60.8517 2.80005 61.6398 2.80005C62.9534 2.80005 63.7415 3.56968 63.7415 4.98068V8.70057H62.5593V5.23722C62.5593 4.33932 62.1653 3.82623 61.2458 3.82623C60.3263 3.82623 59.8009 4.33932 59.8009 5.23722V8.5723H58.6187V2.92832Z" fill="white"/>
<path d="M65.4486 0.748047H66.6308V8.8292H65.4486V0.748047Z" fill="white"/>
<path d="M68.207 5.87812C68.207 3.95403 69.2579 2.92786 70.9655 2.92786C72.6731 2.92786 73.724 4.08231 73.724 5.87812C73.724 7.8022 72.6731 8.82838 70.9655 8.82838C69.3892 8.82838 68.207 7.67393 68.207 5.87812ZM72.6731 5.87812C72.6731 4.5954 72.1477 3.95403 71.0969 3.95403C70.046 3.95403 69.5206 4.72367 69.5206 5.87812C69.5206 7.16084 70.046 7.93047 71.0969 7.93047C72.0164 7.8022 72.6731 7.03257 72.6731 5.87812Z" fill="white"/>
<path d="M75.0381 7.03303C75.0381 6.00686 75.8262 5.36549 77.2711 5.36549L78.8474 5.23722V4.72413C78.8474 4.08277 78.4533 3.82623 77.6652 3.82623C77.0084 3.82623 76.6144 4.08277 76.483 4.46759H75.3008C75.4321 3.44141 76.3516 2.80005 77.6652 2.80005C79.1101 2.80005 80.0296 3.56968 80.0296 4.72413V8.70057H78.8474V7.93094H78.7161C78.322 8.5723 77.6652 8.82884 76.8771 8.82884C75.9576 8.82884 75.0381 8.18748 75.0381 7.03303ZM78.8474 6.64822V6.13513L77.4025 6.2634C76.6144 6.2634 76.2203 6.64822 76.2203 7.03303C76.2203 7.54612 76.7457 7.80267 77.2711 7.80267C78.1906 7.80267 78.8474 7.28958 78.8474 6.64822Z" fill="white"/>
<path d="M81.6058 5.87894C81.6058 4.08313 82.5253 2.92868 84.1015 2.92868C84.8897 2.92868 85.5465 3.31349 85.9405 3.95485H86.0719V0.748047H87.2541V8.8292H86.0719V7.93129H85.9405C85.5465 8.57265 84.8897 8.95747 84.1015 8.95747C82.5253 8.8292 81.6058 7.67475 81.6058 5.87894ZM82.788 5.87894C82.788 7.16166 83.4448 7.80302 84.3642 7.80302C85.2837 7.80302 85.9405 7.03339 85.9405 5.87894C85.9405 4.72449 85.2837 3.95485 84.3642 3.95485C83.3134 3.82658 82.788 4.59622 82.788 5.87894Z" fill="white"/>
<path d="M91.9829 5.87812C91.9829 3.95403 93.0338 2.92786 94.7414 2.92786C96.449 2.92786 97.4999 4.08231 97.4999 5.87812C97.4999 7.8022 96.449 8.82838 94.7414 8.82838C93.0338 8.82838 91.9829 7.67393 91.9829 5.87812ZM96.3177 5.87812C96.3177 4.5954 95.7922 3.95403 94.7414 3.95403C93.6905 3.95403 93.1651 4.72367 93.1651 5.87812C93.1651 7.16084 93.6905 7.93047 94.7414 7.93047C95.7922 7.8022 96.3177 7.03257 96.3177 5.87812Z" fill="white"/>
<path d="M99.0757 2.92832H100.258V3.82623H100.389C100.652 3.18487 101.309 2.80005 102.097 2.80005C103.41 2.80005 104.199 3.56968 104.199 4.98068V8.70057H103.016V5.23722C103.016 4.33932 102.622 3.82623 101.703 3.82623C100.783 3.82623 100.258 4.33932 100.258 5.23722V8.5723H99.0757V2.92832Z" fill="white"/>
<path d="M110.635 1.51648V2.92747H111.949V3.82538H110.635V6.77564C110.635 7.417 110.898 7.67355 111.424 7.67355C111.555 7.67355 111.686 7.67355 111.818 7.67355V8.57145C111.686 8.57145 111.424 8.57145 111.161 8.57145C109.847 8.57145 109.322 8.18664 109.322 7.03219V3.82538H108.534V2.92747H109.453V1.51648H110.635Z" fill="white"/>
<path d="M113.525 0.748047H114.707V3.82658H114.839C115.101 3.18522 115.758 2.8004 116.678 2.8004C117.991 2.8004 118.779 3.57004 118.779 4.98103V8.70093H117.597V5.23758C117.597 4.33967 117.203 3.82658 116.283 3.82658C115.364 3.82658 114.839 4.46794 114.839 5.23758V8.57265H113.656V0.748047H113.525Z" fill="white"/>
<path d="M125.478 7.16131C125.216 8.18748 124.296 8.82884 122.851 8.82884C121.144 8.82884 120.093 7.6744 120.093 5.87858C120.093 4.08277 121.144 2.80005 122.851 2.80005C124.559 2.80005 125.478 3.9545 125.478 5.75031V6.13513H121.275C121.275 7.16131 121.932 7.80267 122.851 7.80267C123.508 7.80267 124.033 7.54612 124.296 7.16131H125.478ZM121.406 5.36549H124.428C124.428 4.46759 123.771 3.82623 122.983 3.82623C122.063 3.82623 121.406 4.46759 121.406 5.36549Z" fill="white"/>
</svg>
