<svg width="144" height="35" viewBox="0 0 144 35" fill="none" xmlns="http://www.w3.org/2000/svg">
<path d="M47.2844 4.75C47.2844 5.75 47.0385 6.625 46.4237 7.25C45.6859 8 44.8251 8.375 43.7185 8.375C42.6118 8.375 41.7511 8 41.0133 7.25C40.2755 6.5 39.9066 5.625 39.9066 4.5C39.9066 3.375 40.2755 2.5 41.0133 1.75C41.7511 1 42.6118 0.625 43.7185 0.625C44.2103 0.625 44.7022 0.75 45.194 1C45.6859 1.25 46.0548 1.5 46.3007 1.875L45.6859 2.5C45.194 1.875 44.5792 1.625 43.7185 1.625C42.9807 1.625 42.2429 1.875 41.7511 2.5C41.1362 3 40.8903 3.75 40.8903 4.625C40.8903 5.5 41.1362 6.25 41.7511 6.75C42.3659 7.25 42.9807 7.625 43.7185 7.625C44.5792 7.625 45.194 7.375 45.8088 6.75C46.1777 6.375 46.4237 5.875 46.4237 5.25H43.7185V4.25H47.2844C47.2844 4.375 47.2844 4.625 47.2844 4.75Z" fill="white"/>
<path d="M52.9407 1.625H49.6207V4H52.6947V4.875H49.6207V7.25H52.9407V8.25H48.637V0.75H52.9407V1.625Z" fill="white"/>
<path d="M56.9985 8.25H56.0148V1.625H53.9244V0.75H59.0889V1.625H56.9985V8.25Z" fill="white"/>
<path d="M62.6548 8.25V0.75H63.6385V8.25H62.6548Z" fill="white"/>
<path d="M67.8192 8.25H66.8355V1.625H64.7451V0.75H69.7866V1.625H67.6962V8.25H67.8192Z" fill="white"/>
<path d="M79.5007 7.25C78.7629 8 77.9022 8.375 76.7955 8.375C75.6888 8.375 74.8281 8 74.0903 7.25C73.3525 6.5 72.9836 5.625 72.9836 4.5C72.9836 3.375 73.3525 2.5 74.0903 1.75C74.8281 1 75.6888 0.625 76.7955 0.625C77.9022 0.625 78.7629 1 79.5007 1.75C80.2385 2.5 80.6073 3.375 80.6073 4.5C80.6073 5.625 80.2385 6.5 79.5007 7.25ZM74.8281 6.625C75.3199 7.125 76.0577 7.5 76.7955 7.5C77.5333 7.5 78.271 7.25 78.7629 6.625C79.2548 6.125 79.6236 5.375 79.6236 4.5C79.6236 3.625 79.3777 2.875 78.7629 2.375C78.271 1.875 77.5333 1.5 76.7955 1.5C76.0577 1.5 75.3199 1.75 74.8281 2.375C74.3362 2.875 73.9673 3.625 73.9673 4.5C73.9673 5.375 74.2133 6.125 74.8281 6.625Z" fill="white"/>
<path d="M81.96 8.25V0.75H83.0666L86.6326 6.625V5.125V0.75H87.6163V8.25H86.6326L82.8207 2.125V3.625V8.25H81.96Z" fill="white"/>
<path d="M72.7378 19.25C69.7867 19.25 67.4504 21.5 67.4504 24.625C67.4504 27.625 69.7867 30 72.7378 30C75.6889 30 78.0252 27.75 78.0252 24.625C78.0252 21.375 75.6889 19.25 72.7378 19.25ZM72.7378 27.75C71.1393 27.75 69.7867 26.375 69.7867 24.5C69.7867 22.625 71.1393 21.25 72.7378 21.25C74.3364 21.25 75.6889 22.5 75.6889 24.5C75.6889 26.375 74.3364 27.75 72.7378 27.75ZM61.3023 19.25C58.3512 19.25 56.0149 21.5 56.0149 24.625C56.0149 27.625 58.3512 30 61.3023 30C64.2534 30 66.5897 27.75 66.5897 24.625C66.5897 21.375 64.2534 19.25 61.3023 19.25ZM61.3023 27.75C59.7038 27.75 58.3512 26.375 58.3512 24.5C58.3512 22.625 59.7038 21.25 61.3023 21.25C62.9008 21.25 64.2534 22.5 64.2534 24.5C64.2534 26.375 62.9008 27.75 61.3023 27.75ZM47.6534 20.875V23.125H52.9408C52.8178 24.375 52.326 25.375 51.7112 26C50.9734 26.75 49.7438 27.625 47.6534 27.625C44.3334 27.625 41.8741 25 41.8741 21.625C41.8741 18.25 44.4564 15.625 47.6534 15.625C49.3749 15.625 50.7275 16.375 51.7112 17.25L53.3097 15.625C51.9571 14.375 50.2356 13.375 47.7764 13.375C43.3497 13.375 39.5378 17.125 39.5378 21.625C39.5378 26.125 43.3497 29.875 47.7764 29.875C50.2356 29.875 51.9571 29.125 53.4327 27.5C54.9082 26 55.4001 23.875 55.4001 22.25C55.4001 21.75 55.4001 21.25 55.2771 20.875H47.6534ZM103.479 22.625C102.987 21.375 101.757 19.25 99.0519 19.25C96.3467 19.25 94.1334 21.375 94.1334 24.625C94.1334 27.625 96.3467 30 99.2978 30C101.634 30 103.11 28.5 103.602 27.625L101.88 26.375C101.265 27.25 100.527 27.875 99.2978 27.875C98.0682 27.875 97.3304 27.375 96.7156 26.25L103.725 23.25L103.479 22.625ZM96.3467 24.375C96.3467 22.375 97.9452 21.25 99.0519 21.25C99.9127 21.25 100.773 21.75 101.019 22.375L96.3467 24.375ZM90.5675 29.5H92.9038V13.875H90.5675V29.5ZM86.8786 20.375C86.2638 19.75 85.2801 19.125 84.0504 19.125C81.4682 19.125 79.0089 21.5 79.0089 24.5C79.0089 27.5 81.3452 29.75 84.0504 29.75C85.2801 29.75 86.2638 29.125 86.7556 28.5H86.8786V29.25C86.8786 31.25 85.7719 32.375 84.0504 32.375C82.6978 32.375 81.7141 31.375 81.4682 30.5L79.5008 31.375C80.1156 32.75 81.5912 34.5 84.1734 34.5C86.8786 34.5 89.0919 32.875 89.0919 29V19.5H86.8786V20.375ZM84.1734 27.75C82.5749 27.75 81.2223 26.375 81.2223 24.5C81.2223 22.625 82.5749 21.25 84.1734 21.25C85.7719 21.25 87.0015 22.625 87.0015 24.5C87.0015 26.375 85.7719 27.75 84.1734 27.75ZM114.176 13.875H108.643V29.5H110.979V23.625H114.176C116.759 23.625 119.218 21.75 119.218 18.75C119.218 15.75 116.759 13.875 114.176 13.875ZM114.299 21.375H110.979V16H114.299C116.021 16 117.005 17.5 117.005 18.625C116.882 20 115.898 21.375 114.299 21.375ZM128.44 19.125C126.719 19.125 124.997 19.875 124.382 21.5L126.473 22.375C126.965 21.5 127.702 21.25 128.563 21.25C129.793 21.25 130.899 22 131.022 23.25V23.375C130.653 23.125 129.67 22.75 128.686 22.75C126.473 22.75 124.259 24 124.259 26.25C124.259 28.375 126.104 29.75 128.071 29.75C129.67 29.75 130.407 29 131.022 28.25H131.145V29.5H133.359V23.5C133.113 20.75 131.022 19.125 128.44 19.125ZM128.194 27.75C127.456 27.75 126.35 27.375 126.35 26.375C126.35 25.125 127.702 24.75 128.809 24.75C129.793 24.75 130.285 25 130.899 25.25C130.653 26.75 129.424 27.75 128.194 27.75ZM141.105 19.5L138.523 26.25H138.4L135.695 19.5H133.236L137.293 29L134.957 34.25H137.293L143.564 19.5H141.105ZM120.447 29.5H122.784V13.875H120.447V29.5Z" fill="white"/>
<path d="M28.717 14.6248L22.6918 11.1248L4.73924 0.74984C3.50961 -0.000159726 2.40294 0.12484 1.5422 0.74984L1.41924 0.87484C0.927384 1.37484 0.681458 2.12484 0.681458 2.99984V30.6248C0.681458 31.4998 0.927384 32.2498 1.41924 32.7498L1.5422 32.8748C1.91109 33.2498 2.40294 33.3748 3.01775 33.3748C3.50961 33.3748 4.12442 33.2498 4.73924 32.8748L22.6918 22.4998L28.717 18.9998C29.7007 18.3748 30.3155 17.6248 30.3155 16.6248C30.3155 16.1248 29.7007 15.2498 28.717 14.6248ZM17.1585 15.8748L3.01775 1.62484C3.38664 1.62484 3.63257 1.74984 4.12442 1.99984L21.2163 11.8748L17.1585 15.8748ZM1.91109 30.8748V3.12484C1.91109 2.87484 1.91109 2.62484 2.03405 2.37484L16.2978 16.9998L2.03405 31.4998C1.91109 31.3748 1.91109 31.1248 1.91109 30.8748ZM4.12442 32.1248C3.75553 32.3748 3.38664 32.3748 3.01775 32.3748L17.1585 17.9998L21.2163 22.1248L4.12442 32.1248ZM28.1022 18.2498L22.4459 21.4998L18.0192 16.9998L22.4459 12.4998L28.1022 15.7498C28.717 16.1248 29.0859 16.6248 29.0859 16.9998C29.0859 17.4998 28.717 17.8748 28.1022 18.2498Z" fill="white"/>
</svg>
