<svg width="165" height="34" viewBox="0 0 165 34" fill="none" xmlns="http://www.w3.org/2000/svg">
<path d="M159.681 0H5.31901C2.38247 0 0 2.34878 0 5.25611V28.7439C0 31.6369 2.38247 34 5.31901 34H159.681C162.618 34 165 31.6512 165 28.7439V5.25611C165 2.34878 162.618 0 159.681 0Z" fill="#9F9F9F"/>
<path d="M96.3417 9.6976C96.5295 9.61152 96.7318 9.56848 96.9485 9.56848C97.1508 9.56848 97.3531 9.62587 97.5265 9.72629C97.7721 9.88409 97.8877 10.0562 98.1477 10.5297L101.326 16.2681L104.505 10.5297C104.765 10.0706 104.881 9.88409 105.126 9.72629C105.3 9.62587 105.502 9.56848 105.704 9.56848C105.907 9.56848 106.123 9.61152 106.311 9.6976C106.745 9.88409 106.961 10.2141 106.976 10.544C106.99 10.8166 106.918 11.0174 106.658 11.4908L102.612 18.7499V23.2976C102.612 23.8571 102.598 24.0436 102.424 24.3305C102.237 24.6461 101.847 24.847 101.341 24.847C100.835 24.847 100.445 24.6318 100.257 24.3305C100.084 24.0292 100.069 23.8571 100.069 23.2976V18.7499L96.0238 11.4908C95.7638 11.0318 95.6915 10.8166 95.706 10.544C95.706 10.2284 95.9227 9.89844 96.3417 9.6976Z" fill="white"/>
<path d="M119.921 9.86975C120.124 10.0562 120.239 10.2571 120.355 10.6301L123.403 20.5145L126.076 10.7879C126.221 10.2714 126.279 10.0849 126.51 9.88409C126.727 9.68325 127.03 9.56848 127.319 9.58283C127.854 9.58283 128.388 9.89844 128.489 10.3288C128.562 10.587 128.518 10.8022 128.388 11.3187L125.007 23.5845C124.892 24.0005 124.733 24.3449 124.415 24.5887C124.155 24.7752 123.837 24.89 123.505 24.8757C123.172 24.8757 122.854 24.7752 122.594 24.5887C122.291 24.3592 122.132 24.0005 122.002 23.5845L119.026 14.0014L116.049 23.5845C115.919 24.0005 115.775 24.3449 115.457 24.5887C115.197 24.7752 114.879 24.89 114.547 24.8757C114.214 24.8757 113.896 24.7752 113.636 24.5887C113.333 24.3592 113.174 24.0005 113.044 23.5845L109.663 11.3043C109.519 10.7879 109.49 10.5727 109.562 10.3145C109.678 9.88409 110.198 9.56848 110.732 9.56848C111.036 9.56848 111.325 9.6689 111.541 9.86975C111.744 10.0849 111.816 10.2714 111.975 10.7735L114.648 20.5001L117.711 10.6157C117.826 10.2427 117.942 10.0276 118.144 9.8554C118.39 9.65456 118.693 9.55414 119.011 9.58283C119.358 9.55414 119.676 9.6689 119.921 9.86975Z" fill="white"/>
<path d="M84.8552 24.6175C84.6529 24.431 84.5373 24.2302 84.4217 23.8572L81.3587 13.9585L78.6857 23.6851C78.5412 24.2015 78.4834 24.388 78.2523 24.5889C78.0355 24.7897 77.7321 24.9045 77.4432 24.8901C76.9086 24.8901 76.374 24.5745 76.2728 24.1441C76.2006 23.8859 76.2439 23.6707 76.374 23.1543L79.7549 10.8884C79.8705 10.4724 80.0294 10.1281 80.3473 9.88421C80.6073 9.69771 80.9252 9.59729 81.2575 9.59729C81.5898 9.59729 81.9077 9.69771 82.1678 9.88421C82.4712 10.1137 82.6301 10.4724 82.7601 10.8884L85.7365 20.4716L88.7129 10.8884C88.8429 10.4724 88.9874 10.1281 89.3052 9.88421C89.5653 9.69771 89.8832 9.59729 90.2155 9.59729C90.5478 9.59729 90.8657 9.69771 91.1257 9.88421C91.4291 10.1137 91.5881 10.4724 91.7181 10.8884L95.099 23.1543C95.2435 23.6707 95.2724 23.8859 95.2002 24.1441C95.0846 24.5745 94.5644 24.8901 94.0298 24.8901C93.7264 24.8901 93.4375 24.7897 93.2207 24.5889C93.0185 24.3737 92.9462 24.1872 92.7873 23.6851L90.1143 13.9585L87.0513 23.8429C86.9357 24.2159 86.8201 24.431 86.6179 24.6032C86.3722 24.804 86.0688 24.9045 85.751 24.8758C85.4186 24.9188 85.1008 24.8184 84.8552 24.6175Z" fill="white"/>
<path d="M132.275 21.7483L131.437 23.7711C131.234 24.2876 131.119 24.4741 130.888 24.6462C130.685 24.7897 130.44 24.8758 130.194 24.8758C129.847 24.8758 129.529 24.761 129.269 24.5315C128.793 24.0867 128.937 23.599 129.183 23.0108L134.312 10.6876C134.485 10.2572 134.615 10.0707 134.818 9.89856C135.078 9.66902 135.41 9.55425 135.757 9.58295C136.089 9.5686 136.421 9.68337 136.681 9.89856C136.884 10.0707 137.014 10.2572 137.187 10.6876L142.316 23.0108C142.562 23.599 142.721 24.0867 142.23 24.5315C141.969 24.761 141.652 24.8758 141.305 24.8758C141.059 24.8758 140.814 24.804 140.611 24.6462C140.38 24.4741 140.279 24.2876 140.062 23.7711L139.224 21.7483H132.275ZM135.742 13.1838L133.069 19.7973H138.43L135.742 13.1838Z" fill="white"/>
<path d="M143.617 9.6976C143.804 9.61152 144.007 9.56848 144.223 9.56848C144.426 9.56848 144.628 9.62587 144.801 9.72629C145.047 9.88409 145.163 10.0562 145.423 10.5297L148.601 16.2681L151.78 10.5297C152.04 10.0706 152.156 9.88409 152.401 9.72629C152.575 9.62587 152.777 9.56848 152.979 9.56848C153.181 9.56848 153.398 9.61152 153.586 9.6976C154.019 9.88409 154.236 10.2141 154.251 10.544C154.265 10.8166 154.193 11.0174 153.933 11.4908L149.887 18.7499V23.2976C149.887 23.8571 149.873 24.0436 149.699 24.3305C149.512 24.6461 149.121 24.847 148.616 24.847C148.11 24.847 147.72 24.6318 147.532 24.3305C147.359 24.0292 147.344 23.8571 147.344 23.2976V18.7499L143.299 11.4908C143.039 11.0318 142.966 10.8166 142.981 10.544C142.966 10.2284 143.183 9.89844 143.617 9.6976Z" fill="white"/>
<path d="M21.4499 8.16244C19.745 7.34472 17.6933 8.04767 16.8697 9.7405L11.1916 21.3608C10.3535 23.0536 11.0471 25.0907 12.752 25.9228C14.4569 26.7548 16.5085 26.0662 17.3465 24.3734C17.3465 24.3591 17.361 24.3447 17.361 24.3304L23.0392 12.7101C23.8627 11.0173 23.1548 8.98016 21.4499 8.16244Z" fill="white"/>
<path fill-rule="evenodd" clip-rule="evenodd" d="M16.4253 9.52682C17.3684 7.58875 19.7161 6.78613 21.6649 7.72084C23.6171 8.65717 24.4256 10.9884 23.4842 12.9236L17.8407 24.4727V24.4875L17.7901 24.5899C16.8311 26.5271 14.4827 27.314 12.5342 26.3631C10.5835 25.411 9.79099 23.08 10.7478 21.1456C10.748 21.1452 10.7482 21.1448 10.7484 21.1445L16.4253 9.52682C16.4252 9.52695 16.4254 9.52668 16.4253 9.52682ZM21.2352 8.60421C19.7743 7.90354 18.0189 8.50665 17.3148 9.95394L11.6362 21.575L11.6351 21.5772C10.9168 23.0282 11.5113 24.7707 12.9701 25.4827C14.4074 26.1841 16.1287 25.6246 16.8672 24.2279V24.2177L22.5945 12.4969C22.5946 12.4967 22.5945 12.497 22.5945 12.4969C23.2999 11.0464 22.6926 9.30326 21.2352 8.60421Z" fill="white"/>
<path d="M32.8496 8.16244C31.1447 7.34472 29.093 8.04767 28.2695 9.7405L22.5913 21.3608C21.7533 23.0536 22.4612 25.0907 24.1661 25.9228C25.871 26.7548 27.9227 26.0519 28.7607 24.3591C28.7607 24.3591 28.7607 24.3447 28.7751 24.3447L34.4533 12.7245C35.2625 11.0173 34.5545 8.98016 32.8496 8.16244C32.864 8.16244 32.8496 8.16244 32.8496 8.16244Z" fill="white"/>
<path fill-rule="evenodd" clip-rule="evenodd" d="M27.8251 9.52682C28.7683 7.58875 31.1159 6.78613 33.0648 7.72084C35.0183 8.65784 35.8228 10.9877 34.9006 12.9334L34.8981 12.9387L29.0849 24.8353H29.0635C28.0318 26.58 25.8104 27.2717 23.9485 26.3631C22.0011 25.4126 21.1892 23.0832 22.1476 21.1456C22.1478 21.1452 22.148 21.1448 22.1482 21.1445L27.8251 9.52682C27.8251 9.52695 27.8252 9.52668 27.8251 9.52682ZM32.635 8.60421C31.1742 7.90354 29.4187 8.50665 28.7146 9.95394L23.036 21.575L23.0349 21.5772C22.3182 23.025 22.9224 24.7691 24.3843 25.4827C25.8333 26.1898 27.577 25.6019 28.304 24.17C28.3089 24.1579 28.3145 24.1454 28.321 24.1326C28.3323 24.1101 28.3469 24.0854 28.3654 24.0603L34.0079 12.5131C34.702 11.0451 34.0904 9.30225 32.635 8.60421Z" fill="white"/>
<path d="M36.9966 26.2242C38.8639 26.2242 40.3775 24.7212 40.3775 22.8672C40.3775 21.0132 38.8639 19.5103 36.9966 19.5103C35.1294 19.5103 33.6157 21.0132 33.6157 22.8672C33.6157 24.7212 35.1294 26.2242 36.9966 26.2242Z" fill="white"/>
<path fill-rule="evenodd" clip-rule="evenodd" d="M36.9965 20.0008C35.4021 20.0008 34.1096 21.2842 34.1096 22.8672C34.1096 24.4503 35.4021 25.7337 36.9965 25.7337C38.5909 25.7337 39.8834 24.4503 39.8834 22.8672C39.8834 21.2842 38.5909 20.0008 36.9965 20.0008ZM33.1216 22.8672C33.1216 20.7423 34.8564 19.0198 36.9965 19.0198C39.1366 19.0198 40.8714 20.7423 40.8714 22.8672C40.8714 24.9922 39.1366 26.7147 36.9965 26.7147C34.8564 26.7147 33.1216 24.9922 33.1216 22.8672Z" fill="white"/>
<path d="M58.7844 26.2097C58.2354 26.2097 57.6864 26.0806 57.1951 25.8367C55.3746 24.9616 54.6089 22.781 55.4902 20.9734L61.1684 9.35315C62.0642 7.54556 64.2459 6.79957 66.0664 7.66033C67.8869 8.54978 68.6527 10.7304 67.7713 12.538L62.0931 24.1582C61.6741 25.0333 60.9083 25.6932 59.9837 26.0089C59.5935 26.138 59.189 26.2097 58.7844 26.2097ZM64.4771 7.77509C63.249 7.77509 62.1365 8.4637 61.6019 9.554L55.9237 21.1743C55.1579 22.7523 55.8225 24.646 57.4119 25.4207C59.0012 26.181 60.9083 25.5211 61.6741 23.9574L67.3523 12.3371C68.1181 10.7591 67.439 8.85104 65.8497 8.09071C65.4162 7.87552 64.9539 7.77509 64.4771 7.77509Z" fill="white"/>
<path fill-rule="evenodd" clip-rule="evenodd" d="M62.046 9.76883L56.3687 21.3873C56.3686 21.3875 56.3688 21.3871 56.3687 21.3873C55.7225 22.72 56.2817 24.3224 57.6279 24.9797C58.9724 25.6218 60.5834 25.0625 61.2297 23.7434C61.2297 23.7433 61.2296 23.7435 61.2297 23.7434L66.9073 12.1243C66.9074 12.1241 66.9072 12.1245 66.9073 12.1243C67.5533 10.7921 66.9803 9.1762 65.6353 8.53272L65.6287 8.5296C65.2682 8.35064 64.8822 8.26573 64.4771 8.26573C63.4369 8.26573 62.4975 8.84861 62.046 9.76883C62.0461 9.76868 62.046 9.76898 62.046 9.76883ZM56.977 26.277C54.9135 25.2832 54.0456 22.8108 55.0456 20.7598L60.724 9.13916L60.7252 9.13671C61.7406 7.08776 64.2147 6.24165 66.2788 7.21759L66.2845 7.2203C68.3461 8.22752 69.2169 10.6989 68.216 12.7518L62.5393 24.3689C62.539 24.3696 62.5387 24.3702 62.5384 24.3708C62.0598 25.369 61.1886 26.1164 60.1442 26.4728L60.1399 26.4743C59.705 26.6183 59.2477 26.7003 58.7844 26.7003C58.1595 26.7003 57.5359 26.5539 56.977 26.277Z" fill="white"/>
<path d="M47.3848 26.2097C46.8357 26.2097 46.2867 26.0806 45.7955 25.8367C43.975 24.9616 43.2092 22.781 44.0906 20.9734L49.7688 9.35315C50.6646 7.54556 52.8463 6.79957 54.6667 7.66033C56.4872 8.53543 57.253 10.716 56.3716 12.5236L50.6935 24.1439C50.0722 25.4063 48.7863 26.2097 47.3848 26.2097ZM53.063 7.77509C51.8349 7.77509 50.7223 8.4637 50.1878 9.554L44.5096 21.1743C43.7294 22.7523 44.394 24.646 45.9688 25.4207C47.5582 26.1953 49.4653 25.5354 50.2456 23.9717C50.2456 23.9574 50.2456 23.9574 50.26 23.943L55.9382 12.3228C56.704 10.7447 56.0393 8.85104 54.45 8.07636C54.031 7.87552 53.5542 7.77509 53.063 7.77509Z" fill="white"/>
<path fill-rule="evenodd" clip-rule="evenodd" d="M50.6319 9.76883L44.954 21.3885L44.953 21.3905C44.2943 22.7228 44.8539 24.3244 46.1873 24.9809C47.5135 25.6267 49.1043 25.0913 49.7792 23.8004C49.7861 23.7804 49.7947 23.7595 49.8055 23.7381C49.8163 23.7167 49.8278 23.6978 49.8387 23.6817L55.4932 12.11C55.4932 12.1098 55.4931 12.1102 55.4932 12.11C56.1395 10.7772 55.5802 9.17478 54.2339 8.51754C53.8888 8.35241 53.487 8.26573 53.063 8.26573C52.0227 8.26573 51.0833 8.84847 50.6319 9.76883C50.632 9.76876 50.6319 9.7689 50.6319 9.76883ZM49.3255 9.13671C50.3409 7.08776 52.8151 6.24165 54.8791 7.21759L54.882 7.21895C56.9476 8.21185 57.8168 10.6856 56.8163 12.7375L51.1379 24.3581L51.1373 24.3593C50.4343 25.7879 48.9776 26.7003 47.3848 26.7003C46.7598 26.7003 46.1362 26.5539 45.5774 26.277C43.5139 25.2832 42.6459 22.8108 43.6459 20.7598L49.3243 9.13916L49.3255 9.13671Z" fill="white"/>
<path d="M41.7354 14.5179C39.7415 14.5179 38.1089 12.9111 38.1089 10.917C38.1089 8.93726 39.7271 7.31616 41.7354 7.31616C43.7293 7.31616 45.3619 8.92291 45.3619 10.917C45.3619 12.9111 43.7437 14.5179 41.7354 14.5179ZM41.7354 7.78958C40.0016 7.78958 38.5857 9.18114 38.5857 10.917C38.5857 12.6529 39.9872 14.0444 41.7354 14.0444C43.4692 14.0444 44.8852 12.6529 44.8852 10.917C44.8852 9.18114 43.4837 7.78958 41.7354 7.78958Z" fill="white"/>
<path fill-rule="evenodd" clip-rule="evenodd" d="M37.615 10.917C37.615 8.66766 39.4531 6.82568 41.7355 6.82568C44.001 6.82568 45.8561 8.65077 45.8561 10.917C45.8561 13.182 44.0167 15.0084 41.7355 15.0084C39.4701 15.0084 37.615 13.1833 37.615 10.917ZM41.7355 8.28013C40.2731 8.28013 39.0798 9.45354 39.0798 10.917C39.0798 12.382 40.2601 13.554 41.7355 13.554C43.198 13.554 44.3913 12.3805 44.3913 10.917C44.3913 9.45208 43.2109 8.28013 41.7355 8.28013Z" fill="white"/>
</svg>
