<svg width="12" height="7" viewBox="0 0 12 7" fill="none" xmlns="http://www.w3.org/2000/svg">
<path d="M11.7241 0.473838C11.8075 0.19978 11.7241 0 11.3276 0H10.0157C9.68181 0 9.52792 0.171606 9.44446 0.366264C9.44446 0.366264 8.77675 1.96451 7.83256 3.00183C7.5274 3.3015 7.38655 3.39883 7.21962 3.39883C7.13616 3.39883 7.01096 3.3015 7.01096 3.03V0.473838C7.01096 0.145993 6.91707 0 6.64059 0H4.57747C4.36881 0 4.24362 0.153677 4.24362 0.294548C4.24362 0.604464 4.71571 0.67618 4.76526 1.55214V3.45006C4.76526 3.86498 4.68963 3.94182 4.5227 3.94182C4.07669 3.94182 2.99427 2.33589 2.35264 0.499451C2.22483 0.143432 2.09703 0 1.76057 0H0.448618C0.0756391 0 0 0.171606 0 0.366264C0 0.706916 0.44601 2.40249 2.07356 4.64105C3.15859 6.17014 4.68702 7 6.07721 7C6.91185 7 7.01618 6.81559 7.01618 6.49799C7.01618 5.03805 6.94054 4.89974 7.36047 4.89974C7.55348 4.89974 7.88733 4.99707 8.6672 5.73216C9.55922 6.60812 9.70528 6.99744 10.2035 6.99744H11.5154C11.8884 6.99744 12.0788 6.81303 11.9692 6.44932C11.7188 5.68606 10.0339 4.11599 9.95828 4.01098C9.76527 3.76509 9.82004 3.65752 9.95828 3.43725C9.95828 3.43725 11.5597 1.2243 11.7241 0.473838Z" fill="#9F9F9F"/>
</svg>
